# xmcd
#
# Track frame offsets:
#  150
#  9721
#  22499
#  34187
#  43889
#  51736
#  67664
#  80610
#  91180
#  101896
#  112941
#  123304
#  135774
#  144903
#  154261
#  163268
#  176800
#  188233
#  199446
#  210351
#  219924
#  230268
#
# Disc length: 3230 seconds
#
# Revision: 0
# Processed by: cddbd v1.5.1PL2 Copyright (c) Steve Scherf et al.
# Submitted via: Collectorz.com_Music_Collector 6.9
#
DISCID=3a0c9c16
DTITLE=Bill Peck - Beatle Banjo And Guitar
DYEAR=1998
DGENRE=Bluegrass
TTITLE0=I Wanna Be Your Man
TTITLE1=She's A Woman
TTITLE2=What You're Doing
TTITLE3=Lady Madonna
TTITLE4=Yes It Is
TTITLE5=I Should Have Known Better
TTITLE6=A Taste Of Honey
TTITLE7=You Can't Do That
TTITLE8=Norwegian Wood
TTITLE9=I'm Looking Through You
TTITLE10=Devil In Her Heart
TTITLE11=All I've Got To Do
TTITLE12=I'm Happy Just To Dance With You
TTITLE13=It Won't Be Long
TTITLE14=And I Love Her
TTITLE15=I Like You Too Much
TTITLE16=Tell Me What You See
TTITLE17=Penny Lane
TTITLE18=Can't Buy Me Love
TTITLE19=Thank You Girl
TTITLE20=You've Got To Hide Your Love Away
TTITLE21=It's Only Love
EXTD=
EXTT0=
EXTT1=
EXTT2=
EXTT3=
EXTT4=
EXTT5=
EXTT6=
EXTT7=
EXTT8=
EXTT9=
EXTT10=
EXTT11=
EXTT12=
EXTT13=
EXTT14=
EXTT15=
EXTT16=
EXTT17=
EXTT18=
EXTT19=
EXTT20=
EXTT21=
PLAYORDER=
